<mxfile host="app.diagrams.net" modified="2020-10-29T03:19:12.462Z" agent="5.0 (Windows NT 10.0; Win64; x64) AppleWebKit/537.36 (KHTML, like Gecko) Chrome/86.0.4240.111 Safari/537.36" etag="A7n7reuIQaMpClOzGRuD" version="13.8.6" type="github">
  <diagram id="1as-1_g_z5-fIdYsQ-eC" name="Page-1">
    <mxGraphModel dx="2912" dy="2254" grid="1" gridSize="10" guides="1" tooltips="1" connect="1" arrows="1" fold="1" page="1" pageScale="1" pageWidth="850" pageHeight="1100" math="0" shadow="0">
      <root>
        <mxCell id="0" />
        <mxCell id="1" parent="0" />
        <mxCell id="rivJpe2qeoZ3pOPvyMkI-2" value="Office" style="shape=table;startSize=30;container=1;collapsible=1;childLayout=tableLayout;fixedRows=1;rowLines=0;fontStyle=1;align=center;resizeLast=1;" parent="1" vertex="1">
          <mxGeometry x="190" y="-155" width="180" height="220" as="geometry" />
        </mxCell>
        <mxCell id="rivJpe2qeoZ3pOPvyMkI-3" value="" style="shape=partialRectangle;collapsible=0;dropTarget=0;pointerEvents=0;fillColor=none;top=0;left=0;bottom=1;right=0;points=[[0,0.5],[1,0.5]];portConstraint=eastwest;" parent="rivJpe2qeoZ3pOPvyMkI-2" vertex="1">
          <mxGeometry y="30" width="180" height="30" as="geometry" />
        </mxCell>
        <mxCell id="rivJpe2qeoZ3pOPvyMkI-4" value="PK" style="shape=partialRectangle;connectable=0;fillColor=none;top=0;left=0;bottom=0;right=0;fontStyle=1;overflow=hidden;" parent="rivJpe2qeoZ3pOPvyMkI-3" vertex="1">
          <mxGeometry width="30" height="30" as="geometry" />
        </mxCell>
        <mxCell id="rivJpe2qeoZ3pOPvyMkI-5" value="officeID" style="shape=partialRectangle;connectable=0;fillColor=none;top=0;left=0;bottom=0;right=0;align=left;spacingLeft=6;fontStyle=5;overflow=hidden;" parent="rivJpe2qeoZ3pOPvyMkI-3" vertex="1">
          <mxGeometry x="30" width="150" height="30" as="geometry" />
        </mxCell>
        <mxCell id="rivJpe2qeoZ3pOPvyMkI-6" value="" style="shape=partialRectangle;collapsible=0;dropTarget=0;pointerEvents=0;fillColor=none;top=0;left=0;bottom=0;right=0;points=[[0,0.5],[1,0.5]];portConstraint=eastwest;" parent="rivJpe2qeoZ3pOPvyMkI-2" vertex="1">
          <mxGeometry y="60" width="180" height="30" as="geometry" />
        </mxCell>
        <mxCell id="rivJpe2qeoZ3pOPvyMkI-7" value="" style="shape=partialRectangle;connectable=0;fillColor=none;top=0;left=0;bottom=0;right=0;editable=1;overflow=hidden;" parent="rivJpe2qeoZ3pOPvyMkI-6" vertex="1">
          <mxGeometry width="30" height="30" as="geometry" />
        </mxCell>
        <mxCell id="rivJpe2qeoZ3pOPvyMkI-8" value="officeName" style="shape=partialRectangle;connectable=0;fillColor=none;top=0;left=0;bottom=0;right=0;align=left;spacingLeft=6;overflow=hidden;" parent="rivJpe2qeoZ3pOPvyMkI-6" vertex="1">
          <mxGeometry x="30" width="150" height="30" as="geometry" />
        </mxCell>
        <mxCell id="rivJpe2qeoZ3pOPvyMkI-9" value="" style="shape=partialRectangle;collapsible=0;dropTarget=0;pointerEvents=0;fillColor=none;top=0;left=0;bottom=0;right=0;points=[[0,0.5],[1,0.5]];portConstraint=eastwest;" parent="rivJpe2qeoZ3pOPvyMkI-2" vertex="1">
          <mxGeometry y="90" width="180" height="30" as="geometry" />
        </mxCell>
        <mxCell id="rivJpe2qeoZ3pOPvyMkI-10" value="" style="shape=partialRectangle;connectable=0;fillColor=none;top=0;left=0;bottom=0;right=0;editable=1;overflow=hidden;" parent="rivJpe2qeoZ3pOPvyMkI-9" vertex="1">
          <mxGeometry width="30" height="30" as="geometry" />
        </mxCell>
        <mxCell id="rivJpe2qeoZ3pOPvyMkI-11" value="officeType" style="shape=partialRectangle;connectable=0;fillColor=none;top=0;left=0;bottom=0;right=0;align=left;spacingLeft=6;overflow=hidden;" parent="rivJpe2qeoZ3pOPvyMkI-9" vertex="1">
          <mxGeometry x="30" width="150" height="30" as="geometry" />
        </mxCell>
        <mxCell id="rivJpe2qeoZ3pOPvyMkI-12" value="" style="shape=partialRectangle;collapsible=0;dropTarget=0;pointerEvents=0;fillColor=none;top=0;left=0;bottom=0;right=0;points=[[0,0.5],[1,0.5]];portConstraint=eastwest;" parent="rivJpe2qeoZ3pOPvyMkI-2" vertex="1">
          <mxGeometry y="120" width="180" height="30" as="geometry" />
        </mxCell>
        <mxCell id="rivJpe2qeoZ3pOPvyMkI-13" value="" style="shape=partialRectangle;connectable=0;fillColor=none;top=0;left=0;bottom=0;right=0;editable=1;overflow=hidden;" parent="rivJpe2qeoZ3pOPvyMkI-12" vertex="1">
          <mxGeometry width="30" height="30" as="geometry" />
        </mxCell>
        <mxCell id="rivJpe2qeoZ3pOPvyMkI-14" value="officeAddress" style="shape=partialRectangle;connectable=0;fillColor=none;top=0;left=0;bottom=0;right=0;align=left;spacingLeft=6;overflow=hidden;" parent="rivJpe2qeoZ3pOPvyMkI-12" vertex="1">
          <mxGeometry x="30" width="150" height="30" as="geometry" />
        </mxCell>
        <mxCell id="LaG_IVPDNWVPYd7C0m55-20" value="" style="shape=partialRectangle;collapsible=0;dropTarget=0;pointerEvents=0;fillColor=none;top=0;left=0;bottom=0;right=0;points=[[0,0.5],[1,0.5]];portConstraint=eastwest;" vertex="1" parent="rivJpe2qeoZ3pOPvyMkI-2">
          <mxGeometry y="150" width="180" height="30" as="geometry" />
        </mxCell>
        <mxCell id="LaG_IVPDNWVPYd7C0m55-21" value="FK" style="shape=partialRectangle;connectable=0;fillColor=none;top=0;left=0;bottom=0;right=0;editable=1;overflow=hidden;" vertex="1" parent="LaG_IVPDNWVPYd7C0m55-20">
          <mxGeometry width="30" height="30" as="geometry" />
        </mxCell>
        <mxCell id="LaG_IVPDNWVPYd7C0m55-22" value="vendorID" style="shape=partialRectangle;connectable=0;fillColor=none;top=0;left=0;bottom=0;right=0;align=left;spacingLeft=6;overflow=hidden;" vertex="1" parent="LaG_IVPDNWVPYd7C0m55-20">
          <mxGeometry x="30" width="150" height="30" as="geometry" />
        </mxCell>
        <mxCell id="LaG_IVPDNWVPYd7C0m55-23" value="" style="shape=partialRectangle;collapsible=0;dropTarget=0;pointerEvents=0;fillColor=none;top=0;left=0;bottom=0;right=0;points=[[0,0.5],[1,0.5]];portConstraint=eastwest;" vertex="1" parent="rivJpe2qeoZ3pOPvyMkI-2">
          <mxGeometry y="180" width="180" height="30" as="geometry" />
        </mxCell>
        <mxCell id="LaG_IVPDNWVPYd7C0m55-24" value="FK" style="shape=partialRectangle;connectable=0;fillColor=none;top=0;left=0;bottom=0;right=0;editable=1;overflow=hidden;" vertex="1" parent="LaG_IVPDNWVPYd7C0m55-23">
          <mxGeometry width="30" height="30" as="geometry" />
        </mxCell>
        <mxCell id="LaG_IVPDNWVPYd7C0m55-25" value="staffID" style="shape=partialRectangle;connectable=0;fillColor=none;top=0;left=0;bottom=0;right=0;align=left;spacingLeft=6;overflow=hidden;" vertex="1" parent="LaG_IVPDNWVPYd7C0m55-23">
          <mxGeometry x="30" width="150" height="30" as="geometry" />
        </mxCell>
        <mxCell id="LaG_IVPDNWVPYd7C0m55-26" value="Staff" style="shape=table;startSize=30;container=1;collapsible=1;childLayout=tableLayout;fixedRows=1;rowLines=0;fontStyle=1;align=center;resizeLast=1;" vertex="1" parent="1">
          <mxGeometry x="-70" y="-65" width="180" height="130" as="geometry" />
        </mxCell>
        <mxCell id="LaG_IVPDNWVPYd7C0m55-27" value="" style="shape=partialRectangle;collapsible=0;dropTarget=0;pointerEvents=0;fillColor=none;top=0;left=0;bottom=1;right=0;points=[[0,0.5],[1,0.5]];portConstraint=eastwest;" vertex="1" parent="LaG_IVPDNWVPYd7C0m55-26">
          <mxGeometry y="30" width="180" height="30" as="geometry" />
        </mxCell>
        <mxCell id="LaG_IVPDNWVPYd7C0m55-28" value="PK" style="shape=partialRectangle;connectable=0;fillColor=none;top=0;left=0;bottom=0;right=0;fontStyle=1;overflow=hidden;" vertex="1" parent="LaG_IVPDNWVPYd7C0m55-27">
          <mxGeometry width="30" height="30" as="geometry" />
        </mxCell>
        <mxCell id="LaG_IVPDNWVPYd7C0m55-29" value="staffID" style="shape=partialRectangle;connectable=0;fillColor=none;top=0;left=0;bottom=0;right=0;align=left;spacingLeft=6;fontStyle=5;overflow=hidden;" vertex="1" parent="LaG_IVPDNWVPYd7C0m55-27">
          <mxGeometry x="30" width="150" height="30" as="geometry" />
        </mxCell>
        <mxCell id="LaG_IVPDNWVPYd7C0m55-30" value="" style="shape=partialRectangle;collapsible=0;dropTarget=0;pointerEvents=0;fillColor=none;top=0;left=0;bottom=0;right=0;points=[[0,0.5],[1,0.5]];portConstraint=eastwest;" vertex="1" parent="LaG_IVPDNWVPYd7C0m55-26">
          <mxGeometry y="60" width="180" height="30" as="geometry" />
        </mxCell>
        <mxCell id="LaG_IVPDNWVPYd7C0m55-31" value="FK" style="shape=partialRectangle;connectable=0;fillColor=none;top=0;left=0;bottom=0;right=0;editable=1;overflow=hidden;" vertex="1" parent="LaG_IVPDNWVPYd7C0m55-30">
          <mxGeometry width="30" height="30" as="geometry" />
        </mxCell>
        <mxCell id="LaG_IVPDNWVPYd7C0m55-32" value="managerID" style="shape=partialRectangle;connectable=0;fillColor=none;top=0;left=0;bottom=0;right=0;align=left;spacingLeft=6;overflow=hidden;" vertex="1" parent="LaG_IVPDNWVPYd7C0m55-30">
          <mxGeometry x="30" width="150" height="30" as="geometry" />
        </mxCell>
        <mxCell id="LaG_IVPDNWVPYd7C0m55-33" value="" style="shape=partialRectangle;collapsible=0;dropTarget=0;pointerEvents=0;fillColor=none;top=0;left=0;bottom=0;right=0;points=[[0,0.5],[1,0.5]];portConstraint=eastwest;" vertex="1" parent="LaG_IVPDNWVPYd7C0m55-26">
          <mxGeometry y="90" width="180" height="30" as="geometry" />
        </mxCell>
        <mxCell id="LaG_IVPDNWVPYd7C0m55-34" value="FK" style="shape=partialRectangle;connectable=0;fillColor=none;top=0;left=0;bottom=0;right=0;editable=1;overflow=hidden;" vertex="1" parent="LaG_IVPDNWVPYd7C0m55-33">
          <mxGeometry width="30" height="30" as="geometry" />
        </mxCell>
        <mxCell id="LaG_IVPDNWVPYd7C0m55-35" value="agentID" style="shape=partialRectangle;connectable=0;fillColor=none;top=0;left=0;bottom=0;right=0;align=left;spacingLeft=6;overflow=hidden;" vertex="1" parent="LaG_IVPDNWVPYd7C0m55-33">
          <mxGeometry x="30" width="150" height="30" as="geometry" />
        </mxCell>
        <mxCell id="LaG_IVPDNWVPYd7C0m55-65" value="Manager" style="shape=table;startSize=30;container=1;collapsible=1;childLayout=tableLayout;fixedRows=1;rowLines=0;fontStyle=1;align=center;resizeLast=1;" vertex="1" parent="1">
          <mxGeometry x="-370" y="-130" width="180" height="190" as="geometry" />
        </mxCell>
        <mxCell id="LaG_IVPDNWVPYd7C0m55-66" value="" style="shape=partialRectangle;collapsible=0;dropTarget=0;pointerEvents=0;fillColor=none;top=0;left=0;bottom=1;right=0;points=[[0,0.5],[1,0.5]];portConstraint=eastwest;" vertex="1" parent="LaG_IVPDNWVPYd7C0m55-65">
          <mxGeometry y="30" width="180" height="30" as="geometry" />
        </mxCell>
        <mxCell id="LaG_IVPDNWVPYd7C0m55-67" value="PK" style="shape=partialRectangle;connectable=0;fillColor=none;top=0;left=0;bottom=0;right=0;fontStyle=1;overflow=hidden;" vertex="1" parent="LaG_IVPDNWVPYd7C0m55-66">
          <mxGeometry width="30" height="30" as="geometry" />
        </mxCell>
        <mxCell id="LaG_IVPDNWVPYd7C0m55-68" value="managerID" style="shape=partialRectangle;connectable=0;fillColor=none;top=0;left=0;bottom=0;right=0;align=left;spacingLeft=6;fontStyle=5;overflow=hidden;" vertex="1" parent="LaG_IVPDNWVPYd7C0m55-66">
          <mxGeometry x="30" width="150" height="30" as="geometry" />
        </mxCell>
        <mxCell id="LaG_IVPDNWVPYd7C0m55-69" value="" style="shape=partialRectangle;collapsible=0;dropTarget=0;pointerEvents=0;fillColor=none;top=0;left=0;bottom=0;right=0;points=[[0,0.5],[1,0.5]];portConstraint=eastwest;" vertex="1" parent="LaG_IVPDNWVPYd7C0m55-65">
          <mxGeometry y="60" width="180" height="30" as="geometry" />
        </mxCell>
        <mxCell id="LaG_IVPDNWVPYd7C0m55-70" value="FK" style="shape=partialRectangle;connectable=0;fillColor=none;top=0;left=0;bottom=0;right=0;editable=1;overflow=hidden;" vertex="1" parent="LaG_IVPDNWVPYd7C0m55-69">
          <mxGeometry width="30" height="30" as="geometry" />
        </mxCell>
        <mxCell id="LaG_IVPDNWVPYd7C0m55-71" value="staffID" style="shape=partialRectangle;connectable=0;fillColor=none;top=0;left=0;bottom=0;right=0;align=left;spacingLeft=6;overflow=hidden;" vertex="1" parent="LaG_IVPDNWVPYd7C0m55-69">
          <mxGeometry x="30" width="150" height="30" as="geometry" />
        </mxCell>
        <mxCell id="LaG_IVPDNWVPYd7C0m55-72" value="" style="shape=partialRectangle;collapsible=0;dropTarget=0;pointerEvents=0;fillColor=none;top=0;left=0;bottom=0;right=0;points=[[0,0.5],[1,0.5]];portConstraint=eastwest;" vertex="1" parent="LaG_IVPDNWVPYd7C0m55-65">
          <mxGeometry y="90" width="180" height="30" as="geometry" />
        </mxCell>
        <mxCell id="LaG_IVPDNWVPYd7C0m55-73" value="" style="shape=partialRectangle;connectable=0;fillColor=none;top=0;left=0;bottom=0;right=0;editable=1;overflow=hidden;" vertex="1" parent="LaG_IVPDNWVPYd7C0m55-72">
          <mxGeometry width="30" height="30" as="geometry" />
        </mxCell>
        <mxCell id="LaG_IVPDNWVPYd7C0m55-74" value="firstName" style="shape=partialRectangle;connectable=0;fillColor=none;top=0;left=0;bottom=0;right=0;align=left;spacingLeft=6;overflow=hidden;" vertex="1" parent="LaG_IVPDNWVPYd7C0m55-72">
          <mxGeometry x="30" width="150" height="30" as="geometry" />
        </mxCell>
        <mxCell id="LaG_IVPDNWVPYd7C0m55-75" value="" style="shape=partialRectangle;collapsible=0;dropTarget=0;pointerEvents=0;fillColor=none;top=0;left=0;bottom=0;right=0;points=[[0,0.5],[1,0.5]];portConstraint=eastwest;" vertex="1" parent="LaG_IVPDNWVPYd7C0m55-65">
          <mxGeometry y="120" width="180" height="30" as="geometry" />
        </mxCell>
        <mxCell id="LaG_IVPDNWVPYd7C0m55-76" value="" style="shape=partialRectangle;connectable=0;fillColor=none;top=0;left=0;bottom=0;right=0;editable=1;overflow=hidden;" vertex="1" parent="LaG_IVPDNWVPYd7C0m55-75">
          <mxGeometry width="30" height="30" as="geometry" />
        </mxCell>
        <mxCell id="LaG_IVPDNWVPYd7C0m55-77" value="lastName" style="shape=partialRectangle;connectable=0;fillColor=none;top=0;left=0;bottom=0;right=0;align=left;spacingLeft=6;overflow=hidden;" vertex="1" parent="LaG_IVPDNWVPYd7C0m55-75">
          <mxGeometry x="30" width="150" height="30" as="geometry" />
        </mxCell>
        <mxCell id="LaG_IVPDNWVPYd7C0m55-104" value="" style="shape=partialRectangle;collapsible=0;dropTarget=0;pointerEvents=0;fillColor=none;top=0;left=0;bottom=0;right=0;points=[[0,0.5],[1,0.5]];portConstraint=eastwest;" vertex="1" parent="LaG_IVPDNWVPYd7C0m55-65">
          <mxGeometry y="150" width="180" height="30" as="geometry" />
        </mxCell>
        <mxCell id="LaG_IVPDNWVPYd7C0m55-105" value="" style="shape=partialRectangle;connectable=0;fillColor=none;top=0;left=0;bottom=0;right=0;editable=1;overflow=hidden;" vertex="1" parent="LaG_IVPDNWVPYd7C0m55-104">
          <mxGeometry width="30" height="30" as="geometry" />
        </mxCell>
        <mxCell id="LaG_IVPDNWVPYd7C0m55-106" value="managerGoal" style="shape=partialRectangle;connectable=0;fillColor=none;top=0;left=0;bottom=0;right=0;align=left;spacingLeft=6;overflow=hidden;" vertex="1" parent="LaG_IVPDNWVPYd7C0m55-104">
          <mxGeometry x="30" width="150" height="30" as="geometry" />
        </mxCell>
        <mxCell id="LaG_IVPDNWVPYd7C0m55-91" value="Agent" style="shape=table;startSize=30;container=1;collapsible=1;childLayout=tableLayout;fixedRows=1;rowLines=0;fontStyle=1;align=center;resizeLast=1;" vertex="1" parent="1">
          <mxGeometry x="-180" y="150" width="180" height="310" as="geometry" />
        </mxCell>
        <mxCell id="LaG_IVPDNWVPYd7C0m55-92" value="" style="shape=partialRectangle;collapsible=0;dropTarget=0;pointerEvents=0;fillColor=none;top=0;left=0;bottom=1;right=0;points=[[0,0.5],[1,0.5]];portConstraint=eastwest;" vertex="1" parent="LaG_IVPDNWVPYd7C0m55-91">
          <mxGeometry y="30" width="180" height="30" as="geometry" />
        </mxCell>
        <mxCell id="LaG_IVPDNWVPYd7C0m55-93" value="PK" style="shape=partialRectangle;connectable=0;fillColor=none;top=0;left=0;bottom=0;right=0;fontStyle=1;overflow=hidden;" vertex="1" parent="LaG_IVPDNWVPYd7C0m55-92">
          <mxGeometry width="30" height="30" as="geometry" />
        </mxCell>
        <mxCell id="LaG_IVPDNWVPYd7C0m55-94" value="agentID" style="shape=partialRectangle;connectable=0;fillColor=none;top=0;left=0;bottom=0;right=0;align=left;spacingLeft=6;fontStyle=5;overflow=hidden;" vertex="1" parent="LaG_IVPDNWVPYd7C0m55-92">
          <mxGeometry x="30" width="150" height="30" as="geometry" />
        </mxCell>
        <mxCell id="LaG_IVPDNWVPYd7C0m55-95" value="" style="shape=partialRectangle;collapsible=0;dropTarget=0;pointerEvents=0;fillColor=none;top=0;left=0;bottom=0;right=0;points=[[0,0.5],[1,0.5]];portConstraint=eastwest;" vertex="1" parent="LaG_IVPDNWVPYd7C0m55-91">
          <mxGeometry y="60" width="180" height="30" as="geometry" />
        </mxCell>
        <mxCell id="LaG_IVPDNWVPYd7C0m55-96" value="FK" style="shape=partialRectangle;connectable=0;fillColor=none;top=0;left=0;bottom=0;right=0;editable=1;overflow=hidden;" vertex="1" parent="LaG_IVPDNWVPYd7C0m55-95">
          <mxGeometry width="30" height="30" as="geometry" />
        </mxCell>
        <mxCell id="LaG_IVPDNWVPYd7C0m55-97" value="staffID" style="shape=partialRectangle;connectable=0;fillColor=none;top=0;left=0;bottom=0;right=0;align=left;spacingLeft=6;overflow=hidden;" vertex="1" parent="LaG_IVPDNWVPYd7C0m55-95">
          <mxGeometry x="30" width="150" height="30" as="geometry" />
        </mxCell>
        <mxCell id="LaG_IVPDNWVPYd7C0m55-98" value="" style="shape=partialRectangle;collapsible=0;dropTarget=0;pointerEvents=0;fillColor=none;top=0;left=0;bottom=0;right=0;points=[[0,0.5],[1,0.5]];portConstraint=eastwest;" vertex="1" parent="LaG_IVPDNWVPYd7C0m55-91">
          <mxGeometry y="90" width="180" height="30" as="geometry" />
        </mxCell>
        <mxCell id="LaG_IVPDNWVPYd7C0m55-99" value="" style="shape=partialRectangle;connectable=0;fillColor=none;top=0;left=0;bottom=0;right=0;editable=1;overflow=hidden;" vertex="1" parent="LaG_IVPDNWVPYd7C0m55-98">
          <mxGeometry width="30" height="30" as="geometry" />
        </mxCell>
        <mxCell id="LaG_IVPDNWVPYd7C0m55-100" value="firstName" style="shape=partialRectangle;connectable=0;fillColor=none;top=0;left=0;bottom=0;right=0;align=left;spacingLeft=6;overflow=hidden;" vertex="1" parent="LaG_IVPDNWVPYd7C0m55-98">
          <mxGeometry x="30" width="150" height="30" as="geometry" />
        </mxCell>
        <mxCell id="LaG_IVPDNWVPYd7C0m55-101" value="" style="shape=partialRectangle;collapsible=0;dropTarget=0;pointerEvents=0;fillColor=none;top=0;left=0;bottom=0;right=0;points=[[0,0.5],[1,0.5]];portConstraint=eastwest;" vertex="1" parent="LaG_IVPDNWVPYd7C0m55-91">
          <mxGeometry y="120" width="180" height="30" as="geometry" />
        </mxCell>
        <mxCell id="LaG_IVPDNWVPYd7C0m55-102" value="" style="shape=partialRectangle;connectable=0;fillColor=none;top=0;left=0;bottom=0;right=0;editable=1;overflow=hidden;" vertex="1" parent="LaG_IVPDNWVPYd7C0m55-101">
          <mxGeometry width="30" height="30" as="geometry" />
        </mxCell>
        <mxCell id="LaG_IVPDNWVPYd7C0m55-103" value="lastName" style="shape=partialRectangle;connectable=0;fillColor=none;top=0;left=0;bottom=0;right=0;align=left;spacingLeft=6;overflow=hidden;" vertex="1" parent="LaG_IVPDNWVPYd7C0m55-101">
          <mxGeometry x="30" width="150" height="30" as="geometry" />
        </mxCell>
        <mxCell id="LaG_IVPDNWVPYd7C0m55-122" value="" style="shape=partialRectangle;collapsible=0;dropTarget=0;pointerEvents=0;fillColor=none;top=0;left=0;bottom=0;right=0;points=[[0,0.5],[1,0.5]];portConstraint=eastwest;" vertex="1" parent="LaG_IVPDNWVPYd7C0m55-91">
          <mxGeometry y="150" width="180" height="30" as="geometry" />
        </mxCell>
        <mxCell id="LaG_IVPDNWVPYd7C0m55-123" value="" style="shape=partialRectangle;connectable=0;fillColor=none;top=0;left=0;bottom=0;right=0;editable=1;overflow=hidden;" vertex="1" parent="LaG_IVPDNWVPYd7C0m55-122">
          <mxGeometry width="30" height="30" as="geometry" />
        </mxCell>
        <mxCell id="LaG_IVPDNWVPYd7C0m55-124" value="agentScore" style="shape=partialRectangle;connectable=0;fillColor=none;top=0;left=0;bottom=0;right=0;align=left;spacingLeft=6;overflow=hidden;" vertex="1" parent="LaG_IVPDNWVPYd7C0m55-122">
          <mxGeometry x="30" width="150" height="30" as="geometry" />
        </mxCell>
        <mxCell id="LaG_IVPDNWVPYd7C0m55-125" value="" style="shape=partialRectangle;collapsible=0;dropTarget=0;pointerEvents=0;fillColor=none;top=0;left=0;bottom=0;right=0;points=[[0,0.5],[1,0.5]];portConstraint=eastwest;" vertex="1" parent="LaG_IVPDNWVPYd7C0m55-91">
          <mxGeometry y="180" width="180" height="30" as="geometry" />
        </mxCell>
        <mxCell id="LaG_IVPDNWVPYd7C0m55-126" value="" style="shape=partialRectangle;connectable=0;fillColor=none;top=0;left=0;bottom=0;right=0;editable=1;overflow=hidden;" vertex="1" parent="LaG_IVPDNWVPYd7C0m55-125">
          <mxGeometry width="30" height="30" as="geometry" />
        </mxCell>
        <mxCell id="LaG_IVPDNWVPYd7C0m55-127" value="agentUp" style="shape=partialRectangle;connectable=0;fillColor=none;top=0;left=0;bottom=0;right=0;align=left;spacingLeft=6;overflow=hidden;" vertex="1" parent="LaG_IVPDNWVPYd7C0m55-125">
          <mxGeometry x="30" width="150" height="30" as="geometry" />
        </mxCell>
        <mxCell id="LaG_IVPDNWVPYd7C0m55-128" value="" style="shape=partialRectangle;collapsible=0;dropTarget=0;pointerEvents=0;fillColor=none;top=0;left=0;bottom=0;right=0;points=[[0,0.5],[1,0.5]];portConstraint=eastwest;" vertex="1" parent="LaG_IVPDNWVPYd7C0m55-91">
          <mxGeometry y="210" width="180" height="30" as="geometry" />
        </mxCell>
        <mxCell id="LaG_IVPDNWVPYd7C0m55-129" value="" style="shape=partialRectangle;connectable=0;fillColor=none;top=0;left=0;bottom=0;right=0;editable=1;overflow=hidden;" vertex="1" parent="LaG_IVPDNWVPYd7C0m55-128">
          <mxGeometry width="30" height="30" as="geometry" />
        </mxCell>
        <mxCell id="LaG_IVPDNWVPYd7C0m55-130" value="recruitedBy" style="shape=partialRectangle;connectable=0;fillColor=none;top=0;left=0;bottom=0;right=0;align=left;spacingLeft=6;overflow=hidden;" vertex="1" parent="LaG_IVPDNWVPYd7C0m55-128">
          <mxGeometry x="30" width="150" height="30" as="geometry" />
        </mxCell>
        <mxCell id="LaG_IVPDNWVPYd7C0m55-131" value="" style="shape=partialRectangle;collapsible=0;dropTarget=0;pointerEvents=0;fillColor=none;top=0;left=0;bottom=0;right=0;points=[[0,0.5],[1,0.5]];portConstraint=eastwest;" vertex="1" parent="LaG_IVPDNWVPYd7C0m55-91">
          <mxGeometry y="240" width="180" height="30" as="geometry" />
        </mxCell>
        <mxCell id="LaG_IVPDNWVPYd7C0m55-132" value="" style="shape=partialRectangle;connectable=0;fillColor=none;top=0;left=0;bottom=0;right=0;editable=1;overflow=hidden;" vertex="1" parent="LaG_IVPDNWVPYd7C0m55-131">
          <mxGeometry width="30" height="30" as="geometry" />
        </mxCell>
        <mxCell id="LaG_IVPDNWVPYd7C0m55-133" value="managerID" style="shape=partialRectangle;connectable=0;fillColor=none;top=0;left=0;bottom=0;right=0;align=left;spacingLeft=6;overflow=hidden;" vertex="1" parent="LaG_IVPDNWVPYd7C0m55-131">
          <mxGeometry x="30" width="150" height="30" as="geometry" />
        </mxCell>
        <mxCell id="LaG_IVPDNWVPYd7C0m55-252" value="" style="shape=partialRectangle;collapsible=0;dropTarget=0;pointerEvents=0;fillColor=none;top=0;left=0;bottom=0;right=0;points=[[0,0.5],[1,0.5]];portConstraint=eastwest;" vertex="1" parent="LaG_IVPDNWVPYd7C0m55-91">
          <mxGeometry y="270" width="180" height="30" as="geometry" />
        </mxCell>
        <mxCell id="LaG_IVPDNWVPYd7C0m55-253" value="FK" style="shape=partialRectangle;connectable=0;fillColor=none;top=0;left=0;bottom=0;right=0;editable=1;overflow=hidden;" vertex="1" parent="LaG_IVPDNWVPYd7C0m55-252">
          <mxGeometry width="30" height="30" as="geometry" />
        </mxCell>
        <mxCell id="LaG_IVPDNWVPYd7C0m55-254" value="agentTypeID" style="shape=partialRectangle;connectable=0;fillColor=none;top=0;left=0;bottom=0;right=0;align=left;spacingLeft=6;overflow=hidden;" vertex="1" parent="LaG_IVPDNWVPYd7C0m55-252">
          <mxGeometry x="30" width="150" height="30" as="geometry" />
        </mxCell>
        <mxCell id="LaG_IVPDNWVPYd7C0m55-134" value="agentType" style="shape=table;startSize=30;container=1;collapsible=1;childLayout=tableLayout;fixedRows=1;rowLines=0;fontStyle=1;align=center;resizeLast=1;" vertex="1" parent="1">
          <mxGeometry x="-410" y="450" width="180" height="100" as="geometry" />
        </mxCell>
        <mxCell id="LaG_IVPDNWVPYd7C0m55-135" value="" style="shape=partialRectangle;collapsible=0;dropTarget=0;pointerEvents=0;fillColor=none;top=0;left=0;bottom=1;right=0;points=[[0,0.5],[1,0.5]];portConstraint=eastwest;" vertex="1" parent="LaG_IVPDNWVPYd7C0m55-134">
          <mxGeometry y="30" width="180" height="30" as="geometry" />
        </mxCell>
        <mxCell id="LaG_IVPDNWVPYd7C0m55-136" value="PK" style="shape=partialRectangle;connectable=0;fillColor=none;top=0;left=0;bottom=0;right=0;fontStyle=1;overflow=hidden;" vertex="1" parent="LaG_IVPDNWVPYd7C0m55-135">
          <mxGeometry width="30" height="30" as="geometry" />
        </mxCell>
        <mxCell id="LaG_IVPDNWVPYd7C0m55-137" value="agentTypeID" style="shape=partialRectangle;connectable=0;fillColor=none;top=0;left=0;bottom=0;right=0;align=left;spacingLeft=6;fontStyle=5;overflow=hidden;" vertex="1" parent="LaG_IVPDNWVPYd7C0m55-135">
          <mxGeometry x="30" width="150" height="30" as="geometry" />
        </mxCell>
        <mxCell id="LaG_IVPDNWVPYd7C0m55-138" value="" style="shape=partialRectangle;collapsible=0;dropTarget=0;pointerEvents=0;fillColor=none;top=0;left=0;bottom=0;right=0;points=[[0,0.5],[1,0.5]];portConstraint=eastwest;" vertex="1" parent="LaG_IVPDNWVPYd7C0m55-134">
          <mxGeometry y="60" width="180" height="30" as="geometry" />
        </mxCell>
        <mxCell id="LaG_IVPDNWVPYd7C0m55-139" value="" style="shape=partialRectangle;connectable=0;fillColor=none;top=0;left=0;bottom=0;right=0;editable=1;overflow=hidden;" vertex="1" parent="LaG_IVPDNWVPYd7C0m55-138">
          <mxGeometry width="30" height="30" as="geometry" />
        </mxCell>
        <mxCell id="LaG_IVPDNWVPYd7C0m55-140" value="agentTypeDescription" style="shape=partialRectangle;connectable=0;fillColor=none;top=0;left=0;bottom=0;right=0;align=left;spacingLeft=6;overflow=hidden;" vertex="1" parent="LaG_IVPDNWVPYd7C0m55-138">
          <mxGeometry x="30" width="150" height="30" as="geometry" />
        </mxCell>
        <mxCell id="LaG_IVPDNWVPYd7C0m55-147" value="Customer" style="shape=table;startSize=30;container=1;collapsible=1;childLayout=tableLayout;fixedRows=1;rowLines=0;fontStyle=1;align=center;resizeLast=1;" vertex="1" parent="1">
          <mxGeometry x="110" y="170" width="180" height="280" as="geometry" />
        </mxCell>
        <mxCell id="LaG_IVPDNWVPYd7C0m55-148" value="" style="shape=partialRectangle;collapsible=0;dropTarget=0;pointerEvents=0;fillColor=none;top=0;left=0;bottom=1;right=0;points=[[0,0.5],[1,0.5]];portConstraint=eastwest;" vertex="1" parent="LaG_IVPDNWVPYd7C0m55-147">
          <mxGeometry y="30" width="180" height="30" as="geometry" />
        </mxCell>
        <mxCell id="LaG_IVPDNWVPYd7C0m55-149" value="PK" style="shape=partialRectangle;connectable=0;fillColor=none;top=0;left=0;bottom=0;right=0;fontStyle=1;overflow=hidden;" vertex="1" parent="LaG_IVPDNWVPYd7C0m55-148">
          <mxGeometry width="30" height="30" as="geometry" />
        </mxCell>
        <mxCell id="LaG_IVPDNWVPYd7C0m55-150" value="customerID" style="shape=partialRectangle;connectable=0;fillColor=none;top=0;left=0;bottom=0;right=0;align=left;spacingLeft=6;fontStyle=5;overflow=hidden;" vertex="1" parent="LaG_IVPDNWVPYd7C0m55-148">
          <mxGeometry x="30" width="150" height="30" as="geometry" />
        </mxCell>
        <mxCell id="LaG_IVPDNWVPYd7C0m55-151" value="" style="shape=partialRectangle;collapsible=0;dropTarget=0;pointerEvents=0;fillColor=none;top=0;left=0;bottom=0;right=0;points=[[0,0.5],[1,0.5]];portConstraint=eastwest;" vertex="1" parent="LaG_IVPDNWVPYd7C0m55-147">
          <mxGeometry y="60" width="180" height="30" as="geometry" />
        </mxCell>
        <mxCell id="LaG_IVPDNWVPYd7C0m55-152" value="" style="shape=partialRectangle;connectable=0;fillColor=none;top=0;left=0;bottom=0;right=0;editable=1;overflow=hidden;" vertex="1" parent="LaG_IVPDNWVPYd7C0m55-151">
          <mxGeometry width="30" height="30" as="geometry" />
        </mxCell>
        <mxCell id="LaG_IVPDNWVPYd7C0m55-153" value="firstName" style="shape=partialRectangle;connectable=0;fillColor=none;top=0;left=0;bottom=0;right=0;align=left;spacingLeft=6;overflow=hidden;" vertex="1" parent="LaG_IVPDNWVPYd7C0m55-151">
          <mxGeometry x="30" width="150" height="30" as="geometry" />
        </mxCell>
        <mxCell id="LaG_IVPDNWVPYd7C0m55-154" value="" style="shape=partialRectangle;collapsible=0;dropTarget=0;pointerEvents=0;fillColor=none;top=0;left=0;bottom=0;right=0;points=[[0,0.5],[1,0.5]];portConstraint=eastwest;" vertex="1" parent="LaG_IVPDNWVPYd7C0m55-147">
          <mxGeometry y="90" width="180" height="30" as="geometry" />
        </mxCell>
        <mxCell id="LaG_IVPDNWVPYd7C0m55-155" value="" style="shape=partialRectangle;connectable=0;fillColor=none;top=0;left=0;bottom=0;right=0;editable=1;overflow=hidden;" vertex="1" parent="LaG_IVPDNWVPYd7C0m55-154">
          <mxGeometry width="30" height="30" as="geometry" />
        </mxCell>
        <mxCell id="LaG_IVPDNWVPYd7C0m55-156" value="lastName" style="shape=partialRectangle;connectable=0;fillColor=none;top=0;left=0;bottom=0;right=0;align=left;spacingLeft=6;overflow=hidden;" vertex="1" parent="LaG_IVPDNWVPYd7C0m55-154">
          <mxGeometry x="30" width="150" height="30" as="geometry" />
        </mxCell>
        <mxCell id="LaG_IVPDNWVPYd7C0m55-157" value="" style="shape=partialRectangle;collapsible=0;dropTarget=0;pointerEvents=0;fillColor=none;top=0;left=0;bottom=0;right=0;points=[[0,0.5],[1,0.5]];portConstraint=eastwest;" vertex="1" parent="LaG_IVPDNWVPYd7C0m55-147">
          <mxGeometry y="120" width="180" height="30" as="geometry" />
        </mxCell>
        <mxCell id="LaG_IVPDNWVPYd7C0m55-158" value="" style="shape=partialRectangle;connectable=0;fillColor=none;top=0;left=0;bottom=0;right=0;editable=1;overflow=hidden;" vertex="1" parent="LaG_IVPDNWVPYd7C0m55-157">
          <mxGeometry width="30" height="30" as="geometry" />
        </mxCell>
        <mxCell id="LaG_IVPDNWVPYd7C0m55-159" value="customerPolicy" style="shape=partialRectangle;connectable=0;fillColor=none;top=0;left=0;bottom=0;right=0;align=left;spacingLeft=6;overflow=hidden;" vertex="1" parent="LaG_IVPDNWVPYd7C0m55-157">
          <mxGeometry x="30" width="150" height="30" as="geometry" />
        </mxCell>
        <mxCell id="LaG_IVPDNWVPYd7C0m55-160" value="" style="shape=partialRectangle;collapsible=0;dropTarget=0;pointerEvents=0;fillColor=none;top=0;left=0;bottom=0;right=0;points=[[0,0.5],[1,0.5]];portConstraint=eastwest;" vertex="1" parent="LaG_IVPDNWVPYd7C0m55-147">
          <mxGeometry y="150" width="180" height="30" as="geometry" />
        </mxCell>
        <mxCell id="LaG_IVPDNWVPYd7C0m55-161" value="" style="shape=partialRectangle;connectable=0;fillColor=none;top=0;left=0;bottom=0;right=0;editable=1;overflow=hidden;" vertex="1" parent="LaG_IVPDNWVPYd7C0m55-160">
          <mxGeometry width="30" height="30" as="geometry" />
        </mxCell>
        <mxCell id="LaG_IVPDNWVPYd7C0m55-162" value="customerYear" style="shape=partialRectangle;connectable=0;fillColor=none;top=0;left=0;bottom=0;right=0;align=left;spacingLeft=6;overflow=hidden;" vertex="1" parent="LaG_IVPDNWVPYd7C0m55-160">
          <mxGeometry x="30" width="150" height="30" as="geometry" />
        </mxCell>
        <mxCell id="LaG_IVPDNWVPYd7C0m55-163" value="" style="shape=partialRectangle;collapsible=0;dropTarget=0;pointerEvents=0;fillColor=none;top=0;left=0;bottom=0;right=0;points=[[0,0.5],[1,0.5]];portConstraint=eastwest;" vertex="1" parent="LaG_IVPDNWVPYd7C0m55-147">
          <mxGeometry y="180" width="180" height="30" as="geometry" />
        </mxCell>
        <mxCell id="LaG_IVPDNWVPYd7C0m55-164" value="" style="shape=partialRectangle;connectable=0;fillColor=none;top=0;left=0;bottom=0;right=0;editable=1;overflow=hidden;" vertex="1" parent="LaG_IVPDNWVPYd7C0m55-163">
          <mxGeometry width="30" height="30" as="geometry" />
        </mxCell>
        <mxCell id="LaG_IVPDNWVPYd7C0m55-165" value="customerDOB" style="shape=partialRectangle;connectable=0;fillColor=none;top=0;left=0;bottom=0;right=0;align=left;spacingLeft=6;overflow=hidden;" vertex="1" parent="LaG_IVPDNWVPYd7C0m55-163">
          <mxGeometry x="30" width="150" height="30" as="geometry" />
        </mxCell>
        <mxCell id="LaG_IVPDNWVPYd7C0m55-166" value="" style="shape=partialRectangle;collapsible=0;dropTarget=0;pointerEvents=0;fillColor=none;top=0;left=0;bottom=0;right=0;points=[[0,0.5],[1,0.5]];portConstraint=eastwest;" vertex="1" parent="LaG_IVPDNWVPYd7C0m55-147">
          <mxGeometry y="210" width="180" height="30" as="geometry" />
        </mxCell>
        <mxCell id="LaG_IVPDNWVPYd7C0m55-167" value="FK" style="shape=partialRectangle;connectable=0;fillColor=none;top=0;left=0;bottom=0;right=0;editable=1;overflow=hidden;" vertex="1" parent="LaG_IVPDNWVPYd7C0m55-166">
          <mxGeometry width="30" height="30" as="geometry" />
        </mxCell>
        <mxCell id="LaG_IVPDNWVPYd7C0m55-168" value="agentID" style="shape=partialRectangle;connectable=0;fillColor=none;top=0;left=0;bottom=0;right=0;align=left;spacingLeft=6;overflow=hidden;" vertex="1" parent="LaG_IVPDNWVPYd7C0m55-166">
          <mxGeometry x="30" width="150" height="30" as="geometry" />
        </mxCell>
        <mxCell id="LaG_IVPDNWVPYd7C0m55-258" value="" style="shape=partialRectangle;collapsible=0;dropTarget=0;pointerEvents=0;fillColor=none;top=0;left=0;bottom=0;right=0;points=[[0,0.5],[1,0.5]];portConstraint=eastwest;" vertex="1" parent="LaG_IVPDNWVPYd7C0m55-147">
          <mxGeometry y="240" width="180" height="30" as="geometry" />
        </mxCell>
        <mxCell id="LaG_IVPDNWVPYd7C0m55-259" value="FK" style="shape=partialRectangle;connectable=0;fillColor=none;top=0;left=0;bottom=0;right=0;editable=1;overflow=hidden;" vertex="1" parent="LaG_IVPDNWVPYd7C0m55-258">
          <mxGeometry width="30" height="30" as="geometry" />
        </mxCell>
        <mxCell id="LaG_IVPDNWVPYd7C0m55-260" value="InsuranceID" style="shape=partialRectangle;connectable=0;fillColor=none;top=0;left=0;bottom=0;right=0;align=left;spacingLeft=6;overflow=hidden;" vertex="1" parent="LaG_IVPDNWVPYd7C0m55-258">
          <mxGeometry x="30" width="150" height="30" as="geometry" />
        </mxCell>
        <mxCell id="LaG_IVPDNWVPYd7C0m55-169" value="insuranceType" style="shape=table;startSize=30;container=1;collapsible=1;childLayout=tableLayout;fixedRows=1;rowLines=0;fontStyle=1;align=center;resizeLast=1;" vertex="1" parent="1">
          <mxGeometry x="390" y="490" width="180" height="120" as="geometry" />
        </mxCell>
        <mxCell id="LaG_IVPDNWVPYd7C0m55-170" value="" style="shape=partialRectangle;collapsible=0;dropTarget=0;pointerEvents=0;fillColor=none;top=0;left=0;bottom=1;right=0;points=[[0,0.5],[1,0.5]];portConstraint=eastwest;" vertex="1" parent="LaG_IVPDNWVPYd7C0m55-169">
          <mxGeometry y="30" width="180" height="30" as="geometry" />
        </mxCell>
        <mxCell id="LaG_IVPDNWVPYd7C0m55-171" value="PK" style="shape=partialRectangle;connectable=0;fillColor=none;top=0;left=0;bottom=0;right=0;fontStyle=1;overflow=hidden;" vertex="1" parent="LaG_IVPDNWVPYd7C0m55-170">
          <mxGeometry width="30" height="30" as="geometry" />
        </mxCell>
        <mxCell id="LaG_IVPDNWVPYd7C0m55-172" value="insuranceTypeID" style="shape=partialRectangle;connectable=0;fillColor=none;top=0;left=0;bottom=0;right=0;align=left;spacingLeft=6;fontStyle=5;overflow=hidden;" vertex="1" parent="LaG_IVPDNWVPYd7C0m55-170">
          <mxGeometry x="30" width="150" height="30" as="geometry" />
        </mxCell>
        <mxCell id="LaG_IVPDNWVPYd7C0m55-173" value="" style="shape=partialRectangle;collapsible=0;dropTarget=0;pointerEvents=0;fillColor=none;top=0;left=0;bottom=0;right=0;points=[[0,0.5],[1,0.5]];portConstraint=eastwest;" vertex="1" parent="LaG_IVPDNWVPYd7C0m55-169">
          <mxGeometry y="60" width="180" height="30" as="geometry" />
        </mxCell>
        <mxCell id="LaG_IVPDNWVPYd7C0m55-174" value="" style="shape=partialRectangle;connectable=0;fillColor=none;top=0;left=0;bottom=0;right=0;editable=1;overflow=hidden;" vertex="1" parent="LaG_IVPDNWVPYd7C0m55-173">
          <mxGeometry width="30" height="30" as="geometry" />
        </mxCell>
        <mxCell id="LaG_IVPDNWVPYd7C0m55-175" value="insuranceTypeDescription" style="shape=partialRectangle;connectable=0;fillColor=none;top=0;left=0;bottom=0;right=0;align=left;spacingLeft=6;overflow=hidden;" vertex="1" parent="LaG_IVPDNWVPYd7C0m55-173">
          <mxGeometry x="30" width="150" height="30" as="geometry" />
        </mxCell>
        <mxCell id="LaG_IVPDNWVPYd7C0m55-179" value="" style="shape=partialRectangle;collapsible=0;dropTarget=0;pointerEvents=0;fillColor=none;top=0;left=0;bottom=0;right=0;points=[[0,0.5],[1,0.5]];portConstraint=eastwest;" vertex="1" parent="LaG_IVPDNWVPYd7C0m55-169">
          <mxGeometry y="90" width="180" height="20" as="geometry" />
        </mxCell>
        <mxCell id="LaG_IVPDNWVPYd7C0m55-180" value="" style="shape=partialRectangle;connectable=0;fillColor=none;top=0;left=0;bottom=0;right=0;editable=1;overflow=hidden;" vertex="1" parent="LaG_IVPDNWVPYd7C0m55-179">
          <mxGeometry width="30" height="20" as="geometry" />
        </mxCell>
        <mxCell id="LaG_IVPDNWVPYd7C0m55-181" value="insurancePrice" style="shape=partialRectangle;connectable=0;fillColor=none;top=0;left=0;bottom=0;right=0;align=left;spacingLeft=6;overflow=hidden;" vertex="1" parent="LaG_IVPDNWVPYd7C0m55-179">
          <mxGeometry x="30" width="150" height="20" as="geometry" />
        </mxCell>
        <mxCell id="LaG_IVPDNWVPYd7C0m55-182" value="Insurance" style="shape=table;startSize=30;container=1;collapsible=1;childLayout=tableLayout;fixedRows=1;rowLines=0;fontStyle=1;align=center;resizeLast=1;" vertex="1" parent="1">
          <mxGeometry x="-20" y="510" width="180" height="160" as="geometry" />
        </mxCell>
        <mxCell id="LaG_IVPDNWVPYd7C0m55-183" value="" style="shape=partialRectangle;collapsible=0;dropTarget=0;pointerEvents=0;fillColor=none;top=0;left=0;bottom=1;right=0;points=[[0,0.5],[1,0.5]];portConstraint=eastwest;" vertex="1" parent="LaG_IVPDNWVPYd7C0m55-182">
          <mxGeometry y="30" width="180" height="30" as="geometry" />
        </mxCell>
        <mxCell id="LaG_IVPDNWVPYd7C0m55-184" value="PK" style="shape=partialRectangle;connectable=0;fillColor=none;top=0;left=0;bottom=0;right=0;fontStyle=1;overflow=hidden;" vertex="1" parent="LaG_IVPDNWVPYd7C0m55-183">
          <mxGeometry width="30" height="30" as="geometry" />
        </mxCell>
        <mxCell id="LaG_IVPDNWVPYd7C0m55-185" value="InsuranceID" style="shape=partialRectangle;connectable=0;fillColor=none;top=0;left=0;bottom=0;right=0;align=left;spacingLeft=6;fontStyle=5;overflow=hidden;" vertex="1" parent="LaG_IVPDNWVPYd7C0m55-183">
          <mxGeometry x="30" width="150" height="30" as="geometry" />
        </mxCell>
        <mxCell id="LaG_IVPDNWVPYd7C0m55-186" value="" style="shape=partialRectangle;collapsible=0;dropTarget=0;pointerEvents=0;fillColor=none;top=0;left=0;bottom=0;right=0;points=[[0,0.5],[1,0.5]];portConstraint=eastwest;" vertex="1" parent="LaG_IVPDNWVPYd7C0m55-182">
          <mxGeometry y="60" width="180" height="30" as="geometry" />
        </mxCell>
        <mxCell id="LaG_IVPDNWVPYd7C0m55-187" value="" style="shape=partialRectangle;connectable=0;fillColor=none;top=0;left=0;bottom=0;right=0;editable=1;overflow=hidden;" vertex="1" parent="LaG_IVPDNWVPYd7C0m55-186">
          <mxGeometry width="30" height="30" as="geometry" />
        </mxCell>
        <mxCell id="LaG_IVPDNWVPYd7C0m55-188" value="insuranceName" style="shape=partialRectangle;connectable=0;fillColor=none;top=0;left=0;bottom=0;right=0;align=left;spacingLeft=6;overflow=hidden;" vertex="1" parent="LaG_IVPDNWVPYd7C0m55-186">
          <mxGeometry x="30" width="150" height="30" as="geometry" />
        </mxCell>
        <mxCell id="LaG_IVPDNWVPYd7C0m55-189" value="" style="shape=partialRectangle;collapsible=0;dropTarget=0;pointerEvents=0;fillColor=none;top=0;left=0;bottom=0;right=0;points=[[0,0.5],[1,0.5]];portConstraint=eastwest;" vertex="1" parent="LaG_IVPDNWVPYd7C0m55-182">
          <mxGeometry y="90" width="180" height="30" as="geometry" />
        </mxCell>
        <mxCell id="LaG_IVPDNWVPYd7C0m55-190" value="FK" style="shape=partialRectangle;connectable=0;fillColor=none;top=0;left=0;bottom=0;right=0;editable=1;overflow=hidden;" vertex="1" parent="LaG_IVPDNWVPYd7C0m55-189">
          <mxGeometry width="30" height="30" as="geometry" />
        </mxCell>
        <mxCell id="LaG_IVPDNWVPYd7C0m55-191" value="insuranceTypeID" style="shape=partialRectangle;connectable=0;fillColor=none;top=0;left=0;bottom=0;right=0;align=left;spacingLeft=6;overflow=hidden;" vertex="1" parent="LaG_IVPDNWVPYd7C0m55-189">
          <mxGeometry x="30" width="150" height="30" as="geometry" />
        </mxCell>
        <mxCell id="LaG_IVPDNWVPYd7C0m55-192" value="" style="shape=partialRectangle;collapsible=0;dropTarget=0;pointerEvents=0;fillColor=none;top=0;left=0;bottom=0;right=0;points=[[0,0.5],[1,0.5]];portConstraint=eastwest;" vertex="1" parent="LaG_IVPDNWVPYd7C0m55-182">
          <mxGeometry y="120" width="180" height="30" as="geometry" />
        </mxCell>
        <mxCell id="LaG_IVPDNWVPYd7C0m55-193" value="" style="shape=partialRectangle;connectable=0;fillColor=none;top=0;left=0;bottom=0;right=0;editable=1;overflow=hidden;" vertex="1" parent="LaG_IVPDNWVPYd7C0m55-192">
          <mxGeometry width="30" height="30" as="geometry" />
        </mxCell>
        <mxCell id="LaG_IVPDNWVPYd7C0m55-194" value="insurancePrice" style="shape=partialRectangle;connectable=0;fillColor=none;top=0;left=0;bottom=0;right=0;align=left;spacingLeft=6;overflow=hidden;" vertex="1" parent="LaG_IVPDNWVPYd7C0m55-192">
          <mxGeometry x="30" width="150" height="30" as="geometry" />
        </mxCell>
        <mxCell id="LaG_IVPDNWVPYd7C0m55-208" value="vendorID" style="shape=table;startSize=20;container=1;collapsible=1;childLayout=tableLayout;fixedRows=1;rowLines=0;fontStyle=1;align=center;resizeLast=1;" vertex="1" parent="1">
          <mxGeometry x="470" y="60" width="180" height="100" as="geometry" />
        </mxCell>
        <mxCell id="LaG_IVPDNWVPYd7C0m55-209" value="" style="shape=partialRectangle;collapsible=0;dropTarget=0;pointerEvents=0;fillColor=none;top=0;left=0;bottom=1;right=0;points=[[0,0.5],[1,0.5]];portConstraint=eastwest;" vertex="1" parent="LaG_IVPDNWVPYd7C0m55-208">
          <mxGeometry y="20" width="180" height="30" as="geometry" />
        </mxCell>
        <mxCell id="LaG_IVPDNWVPYd7C0m55-210" value="PK" style="shape=partialRectangle;connectable=0;fillColor=none;top=0;left=0;bottom=0;right=0;fontStyle=1;overflow=hidden;" vertex="1" parent="LaG_IVPDNWVPYd7C0m55-209">
          <mxGeometry width="30" height="30" as="geometry" />
        </mxCell>
        <mxCell id="LaG_IVPDNWVPYd7C0m55-211" value="vendorID" style="shape=partialRectangle;connectable=0;fillColor=none;top=0;left=0;bottom=0;right=0;align=left;spacingLeft=6;fontStyle=5;overflow=hidden;" vertex="1" parent="LaG_IVPDNWVPYd7C0m55-209">
          <mxGeometry x="30" width="150" height="30" as="geometry" />
        </mxCell>
        <mxCell id="LaG_IVPDNWVPYd7C0m55-212" value="" style="shape=partialRectangle;collapsible=0;dropTarget=0;pointerEvents=0;fillColor=none;top=0;left=0;bottom=0;right=0;points=[[0,0.5],[1,0.5]];portConstraint=eastwest;" vertex="1" parent="LaG_IVPDNWVPYd7C0m55-208">
          <mxGeometry y="50" width="180" height="30" as="geometry" />
        </mxCell>
        <mxCell id="LaG_IVPDNWVPYd7C0m55-213" value="" style="shape=partialRectangle;connectable=0;fillColor=none;top=0;left=0;bottom=0;right=0;editable=1;overflow=hidden;" vertex="1" parent="LaG_IVPDNWVPYd7C0m55-212">
          <mxGeometry width="30" height="30" as="geometry" />
        </mxCell>
        <mxCell id="LaG_IVPDNWVPYd7C0m55-214" value="vendorName" style="shape=partialRectangle;connectable=0;fillColor=none;top=0;left=0;bottom=0;right=0;align=left;spacingLeft=6;overflow=hidden;" vertex="1" parent="LaG_IVPDNWVPYd7C0m55-212">
          <mxGeometry x="30" width="150" height="30" as="geometry" />
        </mxCell>
        <mxCell id="LaG_IVPDNWVPYd7C0m55-228" value="" style="edgeStyle=entityRelationEdgeStyle;fontSize=12;html=1;endArrow=ERoneToMany;startArrow=ERzeroToMany;exitX=1;exitY=0.5;exitDx=0;exitDy=0;entryX=0;entryY=0.5;entryDx=0;entryDy=0;" edge="1" parent="1" source="LaG_IVPDNWVPYd7C0m55-20" target="LaG_IVPDNWVPYd7C0m55-209">
          <mxGeometry width="100" height="100" relative="1" as="geometry">
            <mxPoint x="130" y="220" as="sourcePoint" />
            <mxPoint x="230" y="120" as="targetPoint" />
          </mxGeometry>
        </mxCell>
        <mxCell id="LaG_IVPDNWVPYd7C0m55-256" value="" style="edgeStyle=entityRelationEdgeStyle;fontSize=12;html=1;endArrow=ERzeroToMany;startArrow=ERmandOne;entryX=1;entryY=0.5;entryDx=0;entryDy=0;exitX=0;exitY=0.5;exitDx=0;exitDy=0;" edge="1" parent="1" source="LaG_IVPDNWVPYd7C0m55-170" target="LaG_IVPDNWVPYd7C0m55-189">
          <mxGeometry width="100" height="100" relative="1" as="geometry">
            <mxPoint x="-370" y="740" as="sourcePoint" />
            <mxPoint x="-270" y="640" as="targetPoint" />
          </mxGeometry>
        </mxCell>
        <mxCell id="LaG_IVPDNWVPYd7C0m55-257" value="" style="edgeStyle=entityRelationEdgeStyle;fontSize=12;html=1;endArrow=ERzeroToMany;startArrow=ERzeroToOne;exitX=0.996;exitY=0.049;exitDx=0;exitDy=0;exitPerimeter=0;entryX=-0.008;entryY=0.064;entryDx=0;entryDy=0;entryPerimeter=0;" edge="1" parent="1" source="LaG_IVPDNWVPYd7C0m55-91" target="LaG_IVPDNWVPYd7C0m55-147">
          <mxGeometry width="100" height="100" relative="1" as="geometry">
            <mxPoint x="-60" y="370" as="sourcePoint" />
            <mxPoint x="40" y="270" as="targetPoint" />
          </mxGeometry>
        </mxCell>
        <mxCell id="LaG_IVPDNWVPYd7C0m55-262" value="" style="edgeStyle=entityRelationEdgeStyle;fontSize=12;html=1;endArrow=ERoneToMany;startArrow=ERmandOne;exitX=0;exitY=0.5;exitDx=0;exitDy=0;entryX=1.006;entryY=0.129;entryDx=0;entryDy=0;entryPerimeter=0;" edge="1" parent="1" source="rivJpe2qeoZ3pOPvyMkI-3" target="LaG_IVPDNWVPYd7C0m55-26">
          <mxGeometry width="100" height="100" relative="1" as="geometry">
            <mxPoint x="50" y="-120" as="sourcePoint" />
            <mxPoint x="150" y="-220" as="targetPoint" />
          </mxGeometry>
        </mxCell>
        <mxCell id="LaG_IVPDNWVPYd7C0m55-263" value="" style="edgeStyle=orthogonalEdgeStyle;fontSize=12;html=1;endArrow=ERoneToMany;startArrow=ERmandOne;exitX=0;exitY=0.5;exitDx=0;exitDy=0;entryX=0.5;entryY=0;entryDx=0;entryDy=0;" edge="1" parent="1" source="LaG_IVPDNWVPYd7C0m55-33" target="LaG_IVPDNWVPYd7C0m55-91">
          <mxGeometry width="100" height="100" relative="1" as="geometry">
            <mxPoint x="-200" y="170" as="sourcePoint" />
            <mxPoint x="-100" y="70" as="targetPoint" />
          </mxGeometry>
        </mxCell>
        <mxCell id="LaG_IVPDNWVPYd7C0m55-264" value="" style="edgeStyle=entityRelationEdgeStyle;fontSize=12;html=1;endArrow=ERoneToMany;startArrow=ERmandOne;exitX=0;exitY=0.5;exitDx=0;exitDy=0;" edge="1" parent="1" source="LaG_IVPDNWVPYd7C0m55-30" target="LaG_IVPDNWVPYd7C0m55-66">
          <mxGeometry width="100" height="100" relative="1" as="geometry">
            <mxPoint x="-200" y="170" as="sourcePoint" />
            <mxPoint x="-100" y="70" as="targetPoint" />
          </mxGeometry>
        </mxCell>
        <mxCell id="LaG_IVPDNWVPYd7C0m55-265" value="" style="edgeStyle=orthogonalEdgeStyle;fontSize=12;html=1;endArrow=ERzeroToMany;startArrow=ERmandOne;exitX=0.5;exitY=0;exitDx=0;exitDy=0;entryX=0;entryY=0.5;entryDx=0;entryDy=0;" edge="1" parent="1" source="LaG_IVPDNWVPYd7C0m55-182" target="LaG_IVPDNWVPYd7C0m55-258">
          <mxGeometry width="100" height="100" relative="1" as="geometry">
            <mxPoint x="120" y="500" as="sourcePoint" />
            <mxPoint x="220" y="400" as="targetPoint" />
          </mxGeometry>
        </mxCell>
        <mxCell id="LaG_IVPDNWVPYd7C0m55-267" value="" style="edgeStyle=entityRelationEdgeStyle;fontSize=12;html=1;endArrow=ERmandOne;startArrow=ERmandOne;entryX=0;entryY=0.5;entryDx=0;entryDy=0;exitX=1;exitY=0.1;exitDx=0;exitDy=0;exitPerimeter=0;" edge="1" parent="1" source="LaG_IVPDNWVPYd7C0m55-134" target="LaG_IVPDNWVPYd7C0m55-252">
          <mxGeometry width="100" height="100" relative="1" as="geometry">
            <mxPoint x="-60" y="480" as="sourcePoint" />
            <mxPoint x="40" y="380" as="targetPoint" />
          </mxGeometry>
        </mxCell>
      </root>
    </mxGraphModel>
  </diagram>
</mxfile>
